<svg xmlns="http://www.w3.org/2000/svg" width="265" height="70" viewBox="0 0 265 70">
    <g fill="none" fill-rule="evenodd">
        <g>
            <g>
                <g>
                    <path fill="#000" d="M0 70L140 70 140 0 0 0z" transform="translate(-405 -25) translate(405 25)"/>
                    <g fill="#FFCA05">
                        <path d="M0 0L18.211 0 18.211 8.405 10.922 8.405 10.922 16.369 17.744 16.369 17.744 24.359 10.922 24.359 10.922 33.595 18.938 33.595 18.938 42 0 42zM44.096 0l-3.84 18.574L46.041 42H35.924c-1.21-4.187-2.317-9.29-3.32-15.305-.275 2.664-.66 5.483-1.153 8.457L30.424 42H19.788l3.969-23.426L19.787 0h10.56c.191 1.157.57 3.084 1.137 5.783.458 2.056.831 3.951 1.12 5.683L34.937 0h9.158z" transform="translate(-405 -25) translate(405 25) translate(11.375 14)"/>
                        <path d="M69.568 0l-3.84 18.574L71.515 42H61.396c-1.208-4.187-2.316-9.29-3.32-15.305-.274 2.664-.658 5.483-1.152 8.457L55.897 42H45.261l3.969-23.426L45.26 0h10.56c.19 1.157.57 3.084 1.138 5.783.457 2.056.83 3.951 1.118 5.683L60.41 0h9.158zM72.095 0L90.306 0 90.306 8.405 83.016 8.405 83.016 16.369 89.839 16.369 89.839 24.359 83.016 24.359 83.016 33.595 91.033 33.595 91.033 42 72.095 42zM117.365 0L117.365 42 107.792 42 102.111 22.907 102.111 42 92.979 42 92.979 0 102.111 0 108.233 18.912 108.233 0z" transform="translate(-405 -25) translate(405 25) translate(11.375 14)"/>
                    </g>
                    <path fill="#000" d="M87.525 38.182L94.29 38.182 94.29 30.229 87.525 30.229z" transform="translate(-405 -25) translate(405 25)"/>
                </g>
                <g fill="#000">
                    <path d="M2.535 3.315L.308 3.315.308 1.043 7.231 1.043 7.231 3.315 4.986 3.315 4.986 13.702 2.535 13.702zM12.058 1.982c0-.695.524-1.202 1.141-1.202.618 0 1.105.488 1.105 1.202 0 .695-.468 1.202-1.105 1.202-.636 0-1.14-.507-1.14-1.202zm-3.312 0c0-.695.505-1.202 1.123-1.202.636 0 1.123.488 1.123 1.202 0 .695-.468 1.202-1.123 1.202-.618 0-1.123-.507-1.123-1.202zm6.063 8.921c0 .977.037 1.935.075 2.799h-2.115l-.13-.977H12.6c-.43.62-1.179 1.127-2.115 1.127-1.74 0-2.45-1.296-2.45-3.775v-5.56h2.47v5.297c0 1.202.224 1.972.916 1.972.412 0 .674-.32.786-.62.094-.188.15-.47.15-.789v-5.86h2.45v6.386zM16.923 7.278c0-.92-.038-1.915-.075-2.76h2.133l.131 1.333h.056c.412-.977 1.142-1.484 1.815-1.484.244 0 .375 0 .524.038v2.442c-.15-.038-.318-.038-.524-.038-.524 0-1.216.357-1.496 1.314-.057.207-.094.526-.094.92v4.658h-2.47V7.278zM25.25 8.537h.037c.168-.526.299-.902.467-1.277l1.18-2.743h2.638l-2.208 3.85 2.338 5.335h-2.731l-1.31-3.776-.412.79v2.986h-2.451V.705h2.451v7.832zM30.825 13.702h2.451V4.517h-2.45v9.185zm2.451-11.626c.02.789-.542 1.334-1.29 1.334-.674 0-1.236-.545-1.217-1.334-.019-.826.58-1.333 1.254-1.333.71 0 1.253.507 1.253 1.333zM37.243 4.517l.898 4.771c.094.544.169 1.052.243 1.54h.038c.075-.47.15-.996.224-1.503l.768-4.808h2.395l-1.871 7.081c-.45 1.728-1.049 3.512-2.04 4.695-.767.902-1.703 1.334-2.077 1.446l-.749-2.122c.43-.15.843-.432 1.217-.77.336-.32.598-.695.767-1.09.075-.168.13-.262.13-.393 0-.113-.036-.226-.074-.339l-2.507-8.508h2.638zM47.029 8.255c0-1.183-.3-2.103-1.03-2.103-.804 0-1.122 1.183-1.14 2.103h2.17zm-2.19 1.728c.038 1.427.862 1.953 1.947 1.953.692 0 1.31-.15 1.74-.3l.337 1.765c-.637.244-1.59.413-2.526.413-2.49 0-3.855-1.652-3.855-4.526 0-3.08 1.59-4.92 3.668-4.92 1.964 0 3.106 1.558 3.106 4.338 0 .657-.02 1.014-.075 1.277H44.84zM53.484.893c-.524 1.69-1.31 3.38-2.114 4.733l-1.254.169c.543-1.56 1.048-3.268 1.254-4.752l2.114-.15zM53.521 7.278c0-1.014-.056-1.896-.075-2.76h2.115l.112 1.051h.038c.486-.732 1.272-1.202 2.226-1.202 1.74 0 2.433 1.39 2.433 3.437v5.897h-2.452V7.954c0-.788-.187-1.52-.898-1.52-.412 0-.748.28-.917.826-.074.187-.13.488-.13.845V13.7H53.52V7.278zM62.465 13.702h2.451V4.517h-2.451v9.185zm2.451-11.626c.019.789-.542 1.334-1.291 1.334-.674 0-1.235-.545-1.216-1.334-.019-.826.58-1.333 1.253-1.333.712 0 1.254.507 1.254 1.333zM67.012 7.278c0-1.014-.057-1.896-.075-2.76h2.114l.112 1.051h.038c.487-.732 1.272-1.202 2.226-1.202 1.74 0 2.433 1.39 2.433 3.437v5.897h-2.451V7.954c0-.788-.187-1.52-.898-1.52-.412 0-.749.28-.917.826-.075.187-.131.488-.131.845V13.7h-2.451V7.278zM3.084 30.179c.113.037.3.037.43.037 1.18 0 2.208-1.164 2.208-4.657 0-2.592-.673-4.17-2.151-4.17-.169 0-.337 0-.487.056v8.734zM.634 19.66c.616-.15 1.515-.244 2.488-.244 1.59 0 2.694.376 3.499 1.127 1.085.977 1.646 2.648 1.646 5.108 0 2.555-.655 4.377-1.759 5.353-.841.826-2.095 1.221-3.854 1.221-.767 0-1.534-.075-2.02-.132V19.661zM10.1 32.132h2.452v-9.184H10.1v9.184zm2.452-11.626c.019.79-.543 1.334-1.291 1.334-.674 0-1.235-.545-1.217-1.334-.018-.826.58-1.333 1.254-1.333.711 0 1.254.507 1.254 1.333zM17.155 20.507c0 .788-.562 1.333-1.292 1.333-.673 0-1.234-.545-1.216-1.333-.018-.827.562-1.334 1.254-1.334s1.254.507 1.254 1.334zm-4.098 13.428c.43-.056.898-.15 1.197-.488.356-.376.412-1.033.412-2.442v-8.057h2.47v8.526c0 2.048-.43 3.006-1.216 3.625-.674.545-1.797.79-2.676.79l-.187-1.954zM19.212 32.132h2.452v-9.184h-2.452v9.184zm2.452-11.626c.019.79-.543 1.334-1.291 1.334-.674 0-1.235-.545-1.217-1.334-.018-.826.58-1.333 1.254-1.333.711 0 1.254.507 1.254 1.333zM26.64 20.469v2.479h1.797v1.747h-1.796v4.188c0 1.07.449 1.333.936 1.333.243 0 .43-.018.636-.056l.018 1.916c-.336.093-.842.169-1.497.169-.71 0-1.328-.17-1.759-.583-.505-.488-.785-1.183-.785-2.629v-4.338h-1.085v-1.747h1.085V21.05l2.45-.582zM33.713 27.662c-.823.019-1.946.282-1.946 1.559 0 .92.506 1.258.88 1.258.393 0 .842-.244 1.01-.789.038-.131.056-.281.056-.432v-1.596zm.337 4.47l-.13-.901h-.038c-.505.713-1.216 1.051-2.021 1.051-1.385 0-2.414-1.164-2.414-2.798 0-2.404 2.115-3.4 4.192-3.418v-.207c0-.714-.43-1.24-1.291-1.24-.73 0-1.329.189-1.872.526l-.449-1.652c.505-.301 1.572-.695 2.844-.695 2.789 0 3.237 1.953 3.237 3.812v3.419c0 .732.038 1.483.15 2.103H34.05zM37.848 32.132L40.3 32.132 40.3 19.135 37.848 19.135zM48.457 25.408c.113.038.244.038.393.038 1.235 0 1.797-.883 1.797-2.066 0-1.108-.45-1.972-1.59-1.972-.225 0-.45.037-.6.094v3.906zm-2.45-5.747c.692-.15 1.627-.244 2.563-.244 1.46 0 2.6.207 3.424.977.748.657 1.085 1.709 1.085 2.78 0 1.37-.412 2.328-1.066 3.042-.786.826-2.058 1.202-3.07 1.202h-.486v4.714h-2.45v-12.47zM54.332 32.132L56.784 32.132 56.784 19.135 54.332 19.135zM62.677 27.662c-.823.019-1.946.282-1.946 1.559 0 .92.506 1.258.88 1.258.393 0 .842-.244 1.01-.789.038-.131.056-.281.056-.432v-1.596zm.337 4.47l-.13-.901h-.038c-.505.713-1.216 1.051-2.021 1.051-1.385 0-2.414-1.164-2.414-2.798 0-2.404 2.115-3.4 4.192-3.418v-.207c0-.714-.43-1.24-1.292-1.24-.73 0-1.328.189-1.87.526l-.45-1.652c.505-.301 1.572-.695 2.844-.695 2.789 0 3.238 1.953 3.238 3.812v3.419c0 .732.037 1.483.15 2.103h-2.209zM69.881 20.469v2.479h1.796v1.747h-1.796v4.188c0 1.07.45 1.333.936 1.333.243 0 .43-.018.636-.056l.019 1.916c-.337.093-.842.169-1.497.169-.711 0-1.329-.17-1.76-.583-.504-.488-.785-1.183-.785-2.629v-4.338h-1.085v-1.747h1.085V21.05l2.451-.582zM73.623 32.132v-7.437h-1.235v-1.747h1.235v-.376c0-1.033.206-1.99.936-2.742.543-.563 1.328-.845 2.189-.845.636 0 1.123.094 1.478.207l-.28 1.916c-.188-.076-.45-.113-.749-.113-.823 0-1.123.713-1.123 1.521v.432h1.59v1.747h-1.59v7.437h-2.45zM80.883 27.512c0 1.577.244 2.892 1.123 2.892.786 0 .992-1.54.992-2.892 0-1.259-.206-2.855-1.03-2.855-.898 0-1.085 1.596-1.085 2.855m4.566 0c0 3.831-2.115 4.77-3.5 4.77-2.189 0-3.498-1.728-3.498-4.714 0-3.306 1.721-4.77 3.536-4.77 2.152 0 3.462 1.822 3.462 4.714M87.189 25.709c0-.92-.038-1.916-.075-2.761h2.133l.13 1.333h.057c.412-.976 1.141-1.483 1.815-1.483.243 0 .375 0 .524.037v2.442c-.15-.038-.318-.038-.524-.038-.524 0-1.216.357-1.497 1.315-.056.207-.094.526-.094.92v4.658h-2.47v-6.423zM93.082 25.709c0-1.014-.056-1.897-.074-2.761h2.133l.112 1.07h.038c.467-.694 1.234-1.22 2.189-1.22 1.029 0 1.684.47 2.002 1.24h.037c.225-.357.562-.696.917-.921.374-.207.823-.32 1.291-.32 1.628 0 2.358 1.297 2.358 3.513v5.822h-2.433v-5.41c0-1.05-.112-1.896-.86-1.896-.43 0-.749.3-.917.845-.038.132-.075.395-.075.639v5.822h-2.433v-5.766c0-.657-.074-1.54-.842-1.54-.374 0-.748.282-.916.826-.057.17-.094.432-.094.695v5.785h-2.433v-6.423zM112.879 29.334c0 .976.037 1.934.075 2.798h-2.115l-.13-.977h-.038c-.43.62-1.179 1.127-2.114 1.127-1.74 0-2.452-1.296-2.452-3.775v-5.56h2.47v5.297c0 1.202.225 1.972.917 1.972.412 0 .674-.32.786-.62.093-.187.15-.469.15-.788v-5.86h2.45v6.386z" transform="translate(-405 -25) translate(405 25) translate(152 18)"/>
                </g>
            </g>
        </g>
    </g>
</svg>
